HIERARCHY
ROOT Hips
{
	OFFSET -0.001795 -0.223333 0.028219
	CHANNELS 6 Xposition Yposition Zposition Zrotation Yrotation Xrotation 
	JOINT LeftUpLeg
	{
		OFFSET 0.069520 -0.091406 -0.006815
		CHANNELS 3 Zrotation Yrotation Xrotation
		JOINT LeftLeg
		{
			OFFSET 0.034277 -0.375199 -0.004496
			CHANNELS 3 Zrotation Yrotation Xrotation
			JOINT LeftFoot
			{
				OFFSET -0.013596 -0.397961 -0.043693
				CHANNELS 3 Zrotation Yrotation Xrotation
				JOINT LeftToe
				{
					OFFSET 0.026358 -0.055791 0.119288
					CHANNELS 3 Zrotation Yrotation Xrotation
					End Site
					{
						OFFSET 0.000000 0.000000 0.000000
					}
				}
			}
		}
	}
	JOINT RightUpLeg
	{
		OFFSET -0.067670 -0.090522 -0.004320
		CHANNELS 3 Zrotation Yrotation Xrotation
		JOINT RightLeg
		{
			OFFSET -0.038290 -0.382569 -0.008850
			CHANNELS 3 Zrotation Yrotation Xrotation
			JOINT RightFoot
			{
				OFFSET 0.015774 -0.398415 -0.042312
				CHANNELS 3 Zrotation Yrotation Xrotation
				JOINT RightToe
				{
					OFFSET -0.025372 -0.048144 0.123348
					CHANNELS 3 Zrotation Yrotation Xrotation
					End Site
					{
						OFFSET 0.000000 0.000000 0.000000
					}
				}
			}
		}
	}
	JOINT Spine
	{
		OFFSET -0.002533 0.108963 -0.026696
		CHANNELS 3 Zrotation Yrotation Xrotation
		JOINT Spine1
		{
			OFFSET 0.005487 0.135180 0.001092
			CHANNELS 3 Zrotation Yrotation Xrotation
			JOINT Spine2
			{
				OFFSET 0.001457 0.052922 0.025425
				CHANNELS 3 Zrotation Yrotation Xrotation
				JOINT Neck
				{
					OFFSET -0.002778 0.213870 -0.042857
					CHANNELS 3 Zrotation Yrotation Xrotation
					JOINT Head
					{
						OFFSET 0.005152 0.064970 0.051349
						CHANNELS 3 Zrotation Yrotation Xrotation
						End Site
						{
							OFFSET 0.000000 0.000000 0.000000
						}
					}
				}
				JOINT LeftShoulder
				{
					OFFSET 0.078845 0.121749 -0.034090
					CHANNELS 3 Zrotation Yrotation Xrotation
					JOINT LeftArm
					{
						OFFSET 0.090977 0.030469 -0.008868
						CHANNELS 3 Zrotation Yrotation Xrotation
						JOINT LeftForeArm
						{
							OFFSET 0.259612 -0.012772 -0.027456
							CHANNELS 3 Zrotation Yrotation Xrotation
							JOINT LeftHand
							{
								OFFSET 0.249234 0.008986 -0.001171
								CHANNELS 3 Zrotation Yrotation Xrotation
								End Site
								{
									OFFSET 0.000000 0.000000 0.000000
								}
							}
						}
					}
				}
				JOINT RightShoulder
				{
					OFFSET -0.081759 0.118833 -0.038615
					CHANNELS 3 Zrotation Yrotation Xrotation
					JOINT RightArm
					{
						OFFSET -0.096012 0.032551 -0.009143
						CHANNELS 3 Zrotation Yrotation Xrotation
						JOINT RightForeArm
						{
							OFFSET -0.253742 -0.013329 -0.021401
							CHANNELS 3 Zrotation Yrotation Xrotation
							JOINT RightHand
							{
								OFFSET -0.255298 0.007772 -0.005559
								CHANNELS 3 Zrotation Yrotation Xrotation
								End Site
								{
									OFFSET 0.000000 0.000000 0.000000
								}
							}
						}
					}
				}
			}
		}
	}
}
MOTION
Frames: 14
Frame Time: 0.050000
0.000000 0.907366 0.000000 -0.339622 -2.841220 -5.678377 5.842551 -0.345985 -9.998453 -9.751449 2.666357 24.369488 6.604332 13.550273 -1.134990 0.000000 0.000000 0.000000 -11.201853 0.280192 -15.554969 7.707667 -1.138146 16.496027 -58.818288 -48.111477 71.824314 0.000000 0.000000 0.000000 -2.549597 -0.329727 30.907608 4.437116 -0.761580 -21.381920 3.080438 2.900431 26.355178 -1.078989 2.554209 -27.796967 0.000000 0.000000 0.000000 -21.950135 -18.129893 8.711429 -55.838897 -28.589108 4.703639 -42.773577 -55.309502 27.253927 0.000000 0.000000 0.000000 13.740082 24.436076 11.138975 49.943733 32.082550 6.475687 34.677991 55.809043 21.927193 0.000000 0.000000 0.000000 
0.007487 0.904155 -0.008302 -0.717192 -3.393609 -5.609383 6.554678 -0.314459 -11.704113 -10.998957 3.312404 26.205971 6.844945 14.046362 -1.067611 0.000000 0.000000 0.000000 -11.359760 0.290687 -15.879369 7.985835 -1.164508 15.677502 -58.681187 -48.260976 71.300096 0.000000 0.000000 0.000000 -3.066417 -0.128830 34.247427 4.345989 -0.703047 -22.169754 4.040780 3.380126 25.157573 -1.611260 2.905239 -27.648459 0.000000 0.000000 0.000000 -24.549829 -17.179370 8.315603 -53.055298 -26.883310 3.575438 -51.793900 -54.748248 32.254368 0.000000 0.000000 0.000000 13.185890 25.295514 11.432733 50.948565 31.893553 6.749522 40.544204 57.634572 26.394298 0.000000 0.000000 0.000000 
0.013364 0.902030 -0.016588 -0.493712 -3.189606 -5.637971 6.878070 -0.325651 -13.388046 -12.487561 4.005630 27.859268 6.711926 13.855008 -0.173857 0.000000 0.000000 0.000000 -12.066902 0.203049 -17.041488 8.061864 -1.213418 16.758021 -58.116925 -47.785133 71.674418 0.000000 0.000000 0.000000 -3.043335 -0.137175 36.828033 3.786153 -0.553504 -22.153143 4.356988 4.017100 24.031330 -1.542543 2.925891 -25.531804 0.000000 0.000000 0.000000 -25.795210 -17.954376 8.583599 -50.860856 -26.446017 3.273496 -51.167043 -54.699765 31.403155 0.000000 0.000000 0.000000 13.255755 25.384235 11.603974 49.138389 30.897214 6.033685 44.030271 58.389793 28.936666 0.000000 0.000000 0.000000 
0.017091 0.899868 -0.024625 -0.501154 -3.399685 -6.058684 6.605827 -0.381167 -14.570105 -12.342454 4.163979 29.686708 6.852793 14.187245 0.361029 0.000000 0.000000 0.000000 -12.821315 0.107668 -17.888695 8.616785 -1.363575 17.846791 -56.852755 -46.919964 72.008009 0.000000 0.000000 0.000000 -3.742417 0.156214 39.448765 4.115074 -0.660275 -22.013189 4.407733 4.159292 23.619819 -1.932728 3.231168 -27.601118 0.000000 0.000000 0.000000 -24.360515 -18.147245 8.484837 -52.745709 -26.643387 3.659795 -51.422663 -56.245929 32.560892 0.000000 0.000000 0.000000 11.498964 25.981219 11.436541 49.806473 31.193568 6.430102 48.295869 58.222874 31.551424 0.000000 0.000000 0.000000 
0.018010 0.897558 -0.031769 -0.625177 -2.774961 -6.034260 6.448115 -0.466984 -16.060987 -11.970077 4.067256 31.227945 6.728737 13.942911 0.509715 0.000000 0.000000 0.000000 -13.395968 -0.013226 -18.639758 8.664099 -1.451273 19.285500 -53.270183 -45.758215 70.286605 0.000000 0.000000 0.000000 -3.632901 0.042238 41.316251 4.091956 -0.662508 -21.637843 4.131807 4.221366 23.155310 -1.540218 3.085707 -28.448080 0.000000 0.000000 0.000000 -23.400250 -18.387994 8.356449 -53.377549 -25.815172 3.442007 -51.214158 -58.277511 33.587109 0.000000 0.000000 0.000000 10.367668 25.811702 11.140755 50.667371 30.929404 6.617596 52.297059 58.612126 34.502682 0.000000 0.000000 0.000000 
0.015833 0.895033 -0.038382 -0.700984 -2.371288 -5.812009 6.992706 -0.441410 -17.628082 -12.430278 4.320596 32.543608 6.569726 13.675781 0.931356 0.000000 0.000000 0.000000 -13.446774 -0.045082 -19.036759 7.250307 -1.131241 22.214645 -41.069051 -43.112389 58.696894 0.000000 0.000000 0.000000 -3.934537 0.107184 43.054423 4.436987 -0.646197 -23.098440 4.037081 4.253694 24.142967 -0.996292 2.894646 -30.396780 0.000000 0.000000 0.000000 -23.556324 -18.600970 8.450822 -52.557794 -26.069605 3.364292 -53.754292 -59.192959 35.905634 0.000000 0.000000 0.000000 10.310121 26.027407 11.260600 49.656268 30.215318 6.014978 56.975559 59.317603 38.279352 0.000000 0.000000 0.000000 
0.010746 0.891626 -0.043990 -0.929254 -2.587810 -5.153420 7.523815 -0.397833 -19.905104 -12.179526 4.445857 34.554272 6.694790 13.979013 1.429280 0.000000 0.000000 0.000000 -12.973724 0.052330 -20.548934 5.948923 -0.719652 27.459398 -26.518040 -37.696574 41.556438 0.000000 0.000000 0.000000 -4.179448 0.245228 43.633682 4.301588 -0.630470 -22.818805 3.780083 4.283132 23.693269 -0.863487 2.817221 -30.573710 0.000000 0.000000 0.000000 -23.772633 -18.899713 8.657588 -51.565302 -26.088677 3.296786 -55.220061 -60.885565 38.040723 0.000000 0.000000 0.000000 10.658335 26.196986 11.437517 49.031328 29.390316 5.558295 63.708339 59.351288 43.071830 0.000000 0.000000 0.000000 
0.003392 0.888414 -0.048186 -1.262671 -2.762984 -4.506554 8.344769 -0.268480 -22.052841 -11.934711 4.560482 36.546895 6.732300 14.119953 2.038508 0.000000 0.000000 0.000000 -12.554614 0.150037 -21.855858 5.126323 -0.360504 32.330749 -16.077523 -30.215841 27.511064 0.000000 0.000000 0.000000 -4.401888 0.364041 43.883857 4.492820 -0.665733 -23.024672 3.635953 4.256011 24.120348 -0.772989 2.760307 -30.759180 0.000000 0.000000 0.000000 -24.513414 -19.270820 9.012741 -50.862406 -26.501140 3.350175 -54.470788 -63.098440 39.134782 0.000000 0.000000 0.000000 11.462102 26.464529 11.776548 46.881781 28.976397 4.911963 69.292734 59.636344 47.430004 0.000000 0.000000 0.000000 
-0.004970 0.885529 -0.050859 -1.420755 -3.205104 -4.262808 9.259476 -0.057134 -23.300253 -11.987358 4.814197 38.010455 6.789697 14.282668 2.594060 0.000000 0.000000 0.000000 -12.097584 0.269142 -22.586405 4.615085 -0.020997 36.154571 -10.597449 -24.047620 17.707843 0.000000 0.000000 0.000000 -4.584135 0.524626 44.318020 4.158544 -0.599330 -22.841100 3.562279 4.010641 23.578600 -1.235562 2.915845 -30.135493 0.000000 0.000000 0.000000 -24.853957 -19.627730 9.391815 -50.962321 -27.413512 3.808059 -51.982094 -65.309134 38.936811 0.000000 0.000000 0.000000 11.602781 26.838305 11.911177 44.717859 28.056872 4.208576 74.827329 60.015322 51.789509 0.000000 0.000000 0.000000 
-0.013652 0.882846 -0.052601 -1.527179 -3.627561 -3.981337 10.144305 0.171822 -24.379752 -12.047791 5.055129 39.247090 6.826126 14.397024 3.103697 0.000000 0.000000 0.000000 -11.677587 0.390775 -23.500967 5.179106 -0.198580 36.914939 -10.777211 -24.422446 16.655392 0.000000 0.000000 0.000000 -4.517686 0.584654 44.616396 3.821435 -0.513480 -22.879689 3.241472 3.994800 23.657994 -1.278682 2.932846 -30.801024 0.000000 0.000000 0.000000 -25.552206 -20.091128 9.824302 -51.354803 -28.273487 4.244806 -48.928142 -67.658024 38.356579 0.000000 0.000000 0.000000 11.851066 27.186069 12.111956 42.590522 27.902970 3.792027 78.345450 60.684118 55.110269 0.000000 0.000000 0.000000 
-0.022303 0.879425 -0.053913 -1.638739 -4.275853 -3.775036 10.893167 0.413529 -25.367740 -11.834531 5.235601 40.651404 6.970535 14.679385 3.444003 0.000000 0.000000 0.000000 -11.214361 0.543374 -24.311571 5.721420 -0.332190 37.626800 -10.882996 -24.735143 15.240028 0.000000 0.000000 0.000000 -4.349125 0.658680 45.368766 3.583624 -0.438649 -23.342273 3.032473 3.793021 23.623992 -1.734957 3.101314 -30.586309 0.000000 0.000000 0.000000 -26.867156 -20.221860 10.237918 -51.695551 -29.211991 4.704172 -45.157996 -69.724886 37.021116 0.000000 0.000000 0.000000 11.670316 27.506430 12.138182 40.230244 28.026932 3.462049 81.884482 61.492906 58.579685 0.000000 0.000000 0.000000 
-0.030995 0.874994 -0.055252 -1.679248 -4.930436 -3.244495 11.379086 0.612572 -26.486418 -11.359385 5.259688 41.781639 7.231788 15.121506 3.188041 0.000000 0.000000 0.000000 -10.708098 0.735355 -25.610135 6.083576 -0.382145 38.591998 -11.039683 -25.153969 13.702998 0.000000 0.000000 0.000000 -4.027329 0.666433 45.743523 3.335714 -0.406578 -23.044977 2.912137 3.938474 22.961429 -2.361405 3.395999 -29.469499 0.000000 0.000000 0.000000 -27.953876 -20.462204 10.559232 -52.244938 -29.818826 5.159043 -43.571511 -71.134615 36.724878 0.000000 0.000000 0.000000 11.087694 27.861841 12.152261 39.415200 28.587362 3.585169 83.996076 62.689959 61.515716 0.000000 0.000000 0.000000 
-0.040220 0.870434 -0.056796 -1.817194 -5.789805 -2.815073 11.769201 0.816887 -27.277326 -10.481451 5.083238 42.735153 7.573264 15.693800 2.632282 0.000000 0.000000 0.000000 -10.448787 0.900926 -26.690640 7.122212 -0.716830 39.259383 -11.127874 -25.502445 11.894860 0.000000 0.000000 0.000000 -3.992114 0.834256 46.066904 3.448337 -0.454361 -23.017244 2.759031 3.849052 22.634246 -2.932587 3.625809 -28.460272 0.000000 0.000000 0.000000 -28.940922 -20.300611 10.754507 -52.790407 -30.829527 5.740282 -40.786736 -72.119482 35.319157 0.000000 0.000000 0.000000 10.945132 28.429239 12.318364 38.965971 29.846709 3.949159 86.413852 64.217663 65.118908 0.000000 0.000000 0.000000 
-0.050532 0.866702 -0.058686 -1.964431 -6.668133 -2.538271 12.322715 1.086563 -28.024558 -9.666845 4.950183 43.848848 7.785519 16.071219 2.741556 0.000000 0.000000 0.000000 -10.151634 1.077915 -27.605869 8.283810 -1.105222 39.877778 -11.183626 -25.787085 10.282119 0.000000 0.000000 0.000000 -3.769874 0.931028 46.440651 3.202675 -0.395361 -23.205401 2.931606 4.045401 22.660810 -3.430831 3.879596 -28.149125 0.000000 0.000000 0.000000 -29.346557 -20.312500 10.889474 -52.924756 -31.652627 6.155953 -41.279959 -73.054694 36.365849 0.000000 0.000000 0.000000 10.152792 29.042348 12.363644 39.704436 31.935117 4.806451 86.867037 65.721593 67.130958 0.000000 0.000000 0.000000 
